<?xml version="1.0" encoding="UTF-8" standalone="no"?>
<!-- Created with Inkscape (http://www.inkscape.org/) -->

<svg
   width="56.091068mm"
   height="32.830223mm"
   viewBox="0 0 56.091068 32.830223"
   version="1.1"
   id="svg5"
   xml:space="preserve"
   inkscape:version="1.2.2 (b0a8486541, 2022-12-01)"
   sodipodi:docname="logo.svg"
   xmlns:inkscape="http://www.inkscape.org/namespaces/inkscape"
   xmlns:sodipodi="http://sodipodi.sourceforge.net/DTD/sodipodi-0.dtd"
   xmlns="http://www.w3.org/2000/svg"
   xmlns:svg="http://www.w3.org/2000/svg"><sodipodi:namedview
     id="namedview7"
     pagecolor="#ffffff"
     bordercolor="#000000"
     borderopacity="0.25"
     inkscape:showpageshadow="2"
     inkscape:pageopacity="0.0"
     inkscape:pagecheckerboard="0"
     inkscape:deskcolor="#d1d1d1"
     inkscape:document-units="mm"
     showgrid="false"
     inkscape:zoom="0.70199214"
     inkscape:cx="259.26216"
     inkscape:cy="172.3666"
     inkscape:window-width="1920"
     inkscape:window-height="1011"
     inkscape:window-x="0"
     inkscape:window-y="0"
     inkscape:window-maximized="1"
     inkscape:current-layer="layer1" /><defs
     id="defs2" /><g
     inkscape:label="Layer 1"
     inkscape:groupmode="layer"
     id="layer1"
     transform="translate(-36.541379,-42.510638)"><path
       style="fill:#000000;stroke-width:1"
       d="m 67.549199,75.34077 h 10.86851 l -0.92049,-0.7276 -0.92049,-0.7276 -3.31962,-2.38125 -3.31961,-2.38126 10.84762,-0.132287 10.84761,-0.132291 -4.99024,-3.604345 -4.99025,-3.604342 -1.02911,-0.695137 -1.02911,-0.695135 -3.86568,0.0087 -3.86568,0.0087 -1.82531,0.235159 -1.8253,0.235156 -0.6514,0.651399 -0.65139,0.651399 -0.63297,2.610514 -0.63297,2.610517 -0.45102,2.844273 -0.45102,2.84427 h -0.20963 -0.20962 l -0.002,-0.85989 -0.002,-0.8599 -0.78848,-3.88982 -0.78848,-3.889819 -0.44083,-1.101744 -0.44083,-1.101743 -0.9512,-0.416462 -0.95121,-0.416463 -11.70781,-0.09615 -11.70781,-0.09615 0.009,0.212505 0.009,0.212506 2.57037,1.881372 2.57055,1.881381 7.49026,5.460817 7.49026,5.46081 z m 13.64002,-17.99314 11.44323,0.0015 v -0.112258 -0.11226 l -3.93409,-2.864303 -3.93408,-2.864304 -5.60665,-4.101042 -5.60665,-4.101042 -0.48127,-0.341641 -0.48126,-0.341642 -10.66449,0.01581 -10.6645,0.01581 -0.0829,0.08286 -0.0829,0.08286 1.25633,0.892258 1.25634,0.89226 2.89526,2.128841 2.89527,2.128841 -10.80006,0.132292 -10.80005,0.132292 3.67145,2.637688 3.67146,2.637688 2.09814,1.54782 2.09814,1.547818 5.58731,-0.08446 5.58731,-0.08447 0.73717,-0.4836 0.73717,-0.4836 0.35007,-0.839317 0.35008,-0.839316 0.66735,-3.307292 0.66736,-3.307292 0.18527,-1.653646 0.18527,-1.653645 h 0.18962 0.18961 l 0.47029,2.976562 0.47028,2.976563 0.6232,2.485222 0.62319,2.485224 0.40002,0.610503 0.40002,0.610504 0.99469,0.276236 0.99469,0.276236 11.44323,0.0016 z"
       id="path248" /></g></svg>
